<?xml version="1.0" encoding="UTF-8" standalone="no"?>
<!DOCTYPE svg PUBLIC "-//W3C//DTD SVG 1.1//EN" "http://www.w3.org/Graphics/SVG/1.1/DTD/svg11.dtd">
<svg xmlns="http://www.w3.org/2000/svg" version="1.1" viewBox="0.00 0.00 846.00 751.00">
<g stroke-width="2.00" fill="none" stroke-linecap="butt">
<path stroke="#86b1ce" vector-effect="non-scaling-stroke" d="
  M 520.07 268.82
  A 0.46 0.46 0.0 0 0 520.50 268.19
  Q 516.18 257.16 509.65 247.08
  A 2.02 2.01 -45.2 0 1 509.65 244.89
  L 520.89 227.54
  A 1.28 1.28 0.0 0 0 520.72 225.94
  L 494.28 199.50
  A 1.59 1.58 50.4 0 0 492.27 199.30
  L 474.84 211.05
  A 1.63 1.63 0.0 0 1 473.08 211.08
  Q 455.16 199.82 434.55 195.48
  A 1.69 1.69 0.0 0 1 433.26 194.19
  L 429.01 173.80
  A 1.29 1.29 0.0 0 0 427.75 172.78
  L 389.61 172.78
  A 0.76 0.75 -84.4 0 0 388.87 173.39
  L 384.73 194.70
  A 1.51 1.51 0.0 0 1 383.59 195.88
  Q 362.80 200.68 345.15 212.20
  A 1.45 1.43 44.7 0 1 343.58 212.20
  L 325.80 200.69
  A 1.11 1.11 0.0 0 0 324.41 200.83
  L 297.65 227.60
  A 1.20 1.20 0.0 0 0 297.50 229.12
  L 309.41 246.79
  A 1.54 1.52 43.5 0 1 309.46 248.41
  L 303.60 258.56
  A 0.71 0.71 0.0 0 0 304.21 259.62
  Q 341.94 259.62 342.85 259.60
  C 344.32 259.58 346.29 259.68 347.17 258.66
  Q 368.70 233.84 401.33 229.89
  A 0.56 0.55 -3.2 0 1 401.95 230.44
  L 401.95 251.27
  A 3.67 3.65 -67.6 0 0 403.02 253.86
  L 440.51 291.35
  A 4.20 4.20 0.0 0 0 443.48 292.58
  L 530.76 292.58
  A 1.25 1.24 79.3 0 1 531.92 293.38
  C 535.98 304.11 548.00 309.33 558.68 305.95
  C 572.05 301.72 578.18 285.48 570.31 273.55
  C 560.43 258.57 539.08 260.94 531.97 277.08
  A 1.44 1.43 -77.9 0 1 530.66 277.93
  L 448.95 277.93
  A 2.80 2.80 0.0 0 1 446.97 277.11
  L 417.67 247.80
  A 3.62 3.59 22.7 0 1 416.61 245.25
  L 416.61 230.49
  A 0.80 0.80 0.0 0 1 417.51 229.70
  Q 457.69 234.43 479.84 268.11
  A 1.59 1.58 73.2 0 0 481.16 268.82
  L 520.07 268.82"
/>
<path stroke="#afb2b3" vector-effect="non-scaling-stroke" d="
  M 404.79 316.71
  Q 421.94 334.03 441.33 353.27
  A 3.81 3.80 -22.5 0 0 444.01 354.37
  L 568.26 354.37
  A 0.66 0.66 0.0 0 1 568.88 354.80
  C 576.18 374.21 602.80 376.20 612.04 357.30
  C 617.55 346.03 613.30 333.07 602.87 326.87
  C 589.98 319.20 574.03 325.62 569.05 339.02
  A 1.11 1.11 0.0 0 1 568.01 339.74
  L 449.56 339.74
  A 2.33 2.28 -22.1 0 1 447.93 339.07
  Q 416.97 308.18 415.25 306.45
  Q 398.10 289.13 378.71 269.90
  A 3.81 3.80 -22.5 0 0 376.03 268.80
  L 251.78 268.80
  A 0.66 0.66 0.0 0 1 251.16 268.37
  C 243.86 248.96 217.24 246.97 208.00 265.87
  C 202.49 277.14 206.74 290.10 217.17 296.30
  C 230.06 303.97 246.01 297.55 250.99 284.15
  A 1.11 1.11 0.0 0 1 252.03 283.43
  L 370.48 283.43
  A 2.33 2.28 -22.1 0 1 372.11 284.10
  Q 403.07 314.98 404.79 316.71"
/>
<path stroke="#86b1ce" vector-effect="non-scaling-stroke" d="
  M 329.40 292.56
  L 272.00 292.56
  A 0.95 0.95 0.0 0 0 271.05 293.51
  L 271.05 306.18
  A 1.03 1.02 4.2 0 0 271.93 307.19
  Q 285.62 309.26 293.39 320.36
  A 1.60 1.54 -4.5 0 0 294.05 320.90
  Q 295.12 321.38 297.00 321.39
  Q 314.11 321.43 327.86 321.40
  A 0.54 0.53 87.1 0 0 328.39 320.81
  Q 326.84 307.06 329.93 293.22
  A 0.55 0.54 -84.0 0 0 329.40 292.56"
/>
<path stroke="#86b1ce" vector-effect="non-scaling-stroke" d="
  M 490.65 330.62
  L 548.02 330.56
  A 0.95 0.95 0.0 0 0 548.97 329.61
  L 548.96 316.94
  A 1.03 1.02 4.2 0 0 548.08 315.94
  Q 534.39 313.88 526.61 302.79
  A 1.60 1.54 -4.6 0 0 525.95 302.25
  Q 524.88 301.78 523.00 301.77
  Q 505.90 301.75 492.15 301.79
  A 0.54 0.53 87.0 0 0 491.62 302.38
  Q 493.19 316.12 490.12 329.96
  A 0.55 0.54 -84.0 0 0 490.65 330.62"
/>
<path stroke="#afb2b3" vector-effect="non-scaling-stroke" d="
  M 299.97 354.37
  A 0.46 0.46 0.0 0 0 299.54 355.00
  Q 303.86 366.03 310.39 376.10
  A 2.02 2.01 -45.2 0 1 310.39 378.29
  L 299.16 395.64
  A 1.28 1.28 0.0 0 0 299.33 397.24
  L 325.77 423.68
  A 1.59 1.58 50.4 0 0 327.78 423.88
  L 345.21 412.12
  A 1.63 1.63 0.0 0 1 346.96 412.09
  Q 364.88 423.35 385.49 427.69
  A 1.69 1.69 0.0 0 1 386.78 428.98
  L 391.03 449.36
  A 1.29 1.29 0.0 0 0 392.29 450.38
  L 430.43 450.38
  A 0.76 0.75 -84.4 0 0 431.17 449.77
  L 435.31 428.46
  A 1.51 1.51 0.0 0 1 436.45 427.28
  Q 457.23 422.48 474.88 410.95
  A 1.45 1.43 44.7 0 1 476.45 410.95
  L 494.23 422.46
  A 1.11 1.11 0.0 0 0 495.62 422.32
  L 522.37 395.55
  A 1.20 1.20 0.0 0 0 522.52 394.03
  L 510.61 376.36
  A 1.54 1.52 43.5 0 1 510.56 374.74
  L 516.42 364.60
  A 0.71 0.71 0.0 0 0 515.80 363.54
  Q 478.08 363.54 477.17 363.56
  C 475.70 363.58 473.73 363.48 472.85 364.50
  Q 451.33 389.32 418.70 393.28
  A 0.56 0.55 -3.2 0 1 418.08 392.73
  L 418.08 371.90
  A 3.67 3.65 -67.6 0 0 417.01 369.31
  L 379.52 331.83
  A 4.20 4.20 0.0 0 0 376.55 330.60
  L 289.28 330.61
  A 1.25 1.24 79.3 0 1 288.12 329.81
  C 284.06 319.09 272.04 313.87 261.36 317.25
  C 247.99 321.48 241.87 337.72 249.74 349.65
  C 259.62 364.62 280.97 362.25 288.07 346.11
  A 1.44 1.43 -78.0 0 1 289.38 345.26
  L 371.08 345.25
  A 2.80 2.80 0.0 0 1 373.06 346.07
  L 402.36 375.37
  A 3.62 3.59 22.7 0 1 403.42 377.92
  L 403.42 392.68
  A 0.80 0.80 0.0 0 1 402.52 393.47
  Q 362.35 388.74 340.20 355.07
  A 1.58 1.58 0.0 0 0 338.88 354.36
  L 299.97 354.37"
/>
<path stroke="#87b0ce" vector-effect="non-scaling-stroke" d="
  M 307.41 503.73
  L 307.41 491.69
  A 1.15 1.14 8.1 0 0 306.58 490.59
  C 295.50 487.47 268.19 484.30 266.21 501.30
  Q 264.87 512.85 275.92 517.38
  Q 282.99 520.29 292.25 521.95
  Q 294.17 522.30 295.18 524.04
  A 0.52 0.52 0.0 0 1 294.93 524.78
  C 288.04 527.82 276.23 525.91 268.82 524.10
  A 0.74 0.74 0.0 0 0 267.91 524.82
  L 267.91 536.77
  A 1.21 1.21 0.0 0 0 268.81 537.94
  C 280.60 540.99 308.56 543.85 309.88 525.63
  C 310.99 510.37 292.83 508.29 282.61 505.19
  A 1.35 1.26 21.6 0 1 281.76 503.39
  Q 281.87 503.17 282.30 503.03
  Q 285.43 502.02 290.53 502.13
  Q 297.97 502.29 306.77 504.24
  A 0.53 0.52 6.2 0 0 307.41 503.73"
/>
<path stroke="#87b0ce" vector-effect="non-scaling-stroke" d="
  M 411.57 521.23
  A 0.61 0.61 0.0 0 1 412.18 520.62
  L 426.86 520.62
  A 0.61 0.61 0.0 0 1 427.47 521.23
  L 427.47 538.83
  A 0.61 0.61 0.0 0 0 428.08 539.44
  L 441.29 539.44
  A 0.61 0.61 0.0 0 0 441.90 538.83
  L 441.90 508.41
  A 0.61 0.61 0.0 0 0 441.29 507.80
  L 412.18 507.80
  A 0.61 0.61 0.0 0 1 411.57 507.19
  L 411.57 489.56
  A 0.61 0.61 0.0 0 0 410.96 488.95
  L 397.74 488.95
  A 0.61 0.61 0.0 0 0 397.13 489.56
  L 397.13 538.85
  A 0.61 0.61 0.0 0 0 397.74 539.46
  L 410.96 539.46
  A 0.61 0.61 0.0 0 0 411.57 538.85
  L 411.57 521.23"
/>
<path stroke="#87b0ce" vector-effect="non-scaling-stroke" d="
  M 514.05 538.83
  L 514.05 528.65
  A 0.68 0.68 0.0 0 1 514.76 527.97
  C 524.06 528.33 536.65 528.34 540.93 518.30
  Q 543.81 511.55 542.29 502.94
  C 540.55 493.12 533.39 489.49 524.22 489.08
  Q 520.55 488.92 500.35 488.93
  A 0.85 0.84 0.0 0 0 499.50 489.77
  L 499.50 501.25
  A 0.81 0.81 0.0 0 0 500.34 502.06
  Q 511.47 501.62 521.89 502.07
  Q 523.37 502.14 525.18 502.86
  C 528.93 504.36 528.92 511.41 525.82 513.49
  Q 523.92 514.77 522.24 514.83
  Q 512.85 515.19 500.44 514.80
  A 0.93 0.93 0.0 0 0 499.48 515.73
  L 499.48 538.82
  A 0.66 0.65 -0.0 0 0 500.14 539.47
  L 513.41 539.47
  A 0.64 0.64 0.0 0 0 514.05 538.83"
/>
<path stroke="#87b0ce" vector-effect="non-scaling-stroke" d="
  M 222.99 535.46
  Q 223.31 535.46 223.40 535.36
  Q 234.51 521.67 260.60 489.88
  A 0.58 0.58 0.0 0 0 260.16 488.93
  L 245.63 488.93
  A 3.47 3.44 -70.2 0 0 242.96 490.20
  Q 234.54 500.54 223.41 514.18
  Q 223.24 514.38 222.98 514.38
  Q 222.71 514.38 222.55 514.18
  Q 211.41 500.55 202.99 490.21
  A 3.47 3.44 70.1 0 0 200.32 488.94
  L 185.79 488.95
  A 0.58 0.58 0.0 0 0 185.35 489.90
  Q 211.45 521.68 222.57 535.36
  Q 222.66 535.46 222.99 535.46"
/>
<path stroke="#87b0ce" vector-effect="non-scaling-stroke" d="
  M 338.89 503.70
  A 0.37 0.37 0.0 0 1 339.38 503.92
  L 346.91 525.53
  A 0.68 0.68 0.0 0 1 346.27 526.43
  L 338.07 526.43
  A 1.60 1.60 0.0 0 0 336.56 527.51
  L 332.70 538.61
  A 0.65 0.65 0.0 0 0 333.31 539.47
  L 365.26 539.47
  A 0.67 0.67 0.0 0 0 365.89 538.58
  L 348.97 489.99
  A 1.53 1.53 0.0 0 0 347.53 488.97
  L 329.90 488.97
  A 0.83 0.82 9.4 0 0 329.12 489.52
  L 312.00 538.79
  A 0.50 0.50 0.0 0 0 312.47 539.45
  L 325.69 539.45
  A 0.68 0.67 8.9 0 0 326.33 538.99
  Q 336.12 510.90 338.19 504.75
  Q 338.49 503.88 338.89 503.70"
/>
<path stroke="#87b0ce" vector-effect="non-scaling-stroke" d="
  M 441.96 489.82
  A 0.88 0.88 0.0 0 0 441.08 488.94
  L 428.36 488.94
  A 0.88 0.88 0.0 0 0 427.48 489.82
  L 427.48 501.04
  A 0.88 0.88 0.0 0 0 428.36 501.92
  L 441.08 501.92
  A 0.88 0.88 0.0 0 0 441.96 501.04
  L 441.96 489.82"
/>
<path stroke="#87b0ce" vector-effect="non-scaling-stroke" d="
  M 463.59 527.45
  A 0.68 0.68 0.0 0 1 463.66 527.75
  L 463.66 538.82
  A 0.68 0.68 0.0 0 0 464.34 539.50
  L 477.58 539.50
  A 0.68 0.68 0.0 0 0 478.26 538.82
  L 478.26 526.58
  A 0.68 0.68 0.0 0 0 478.19 526.28
  L 460.40 489.34
  A 0.68 0.68 0.0 0 0 459.78 488.96
  L 446.13 488.96
  A 0.68 0.68 0.0 0 0 445.52 489.94
  L 463.59 527.45"
/>
<path stroke="#87b0ce" vector-effect="non-scaling-stroke" d="
  M 482.17 488.95
  A 0.70 0.70 0.0 0 0 481.54 489.35
  L 476.01 500.91
  A 0.70 0.70 0.0 0 0 476.64 501.91
  L 490.27 501.91
  A 0.70 0.70 0.0 0 0 490.90 501.51
  L 496.42 489.95
  A 0.70 0.70 0.0 0 0 495.79 488.95
  L 482.17 488.95"
/>
<path stroke="#87b0ce" vector-effect="non-scaling-stroke" d="
  M 587.83 489.64
  A 0.69 0.69 0.0 0 0 587.14 488.95
  L 547.80 488.95
  A 0.69 0.69 0.0 0 0 547.11 489.64
  L 547.11 501.20
  A 0.69 0.69 0.0 0 0 547.80 501.89
  L 587.14 501.89
  A 0.69 0.69 0.0 0 0 587.83 501.20
  L 587.83 489.64"
/>
<path stroke="#87b0ce" vector-effect="non-scaling-stroke" d="
  M 592.00 501.95
  Q 610.39 501.82 616.76 502.00
  C 621.99 502.15 623.81 505.69 622.31 510.37
  C 621.50 512.91 618.34 513.45 615.99 513.46
  Q 601.66 513.48 599.35 513.50
  A 0.56 0.56 0.0 0 0 598.79 514.06
  L 598.79 525.71
  A 0.68 0.67 -90.0 0 0 599.46 526.39
  L 605.40 526.39
  A 1.52 1.50 -19.3 0 1 606.57 526.94
  L 615.96 538.35
  A 3.07 3.07 0.0 0 0 618.33 539.47
  L 633.22 539.47
  A 0.48 0.48 0.0 0 0 633.59 538.68
  L 623.90 526.90
  A 0.74 0.73 -24.4 0 1 624.35 525.71
  C 637.30 523.52 640.22 509.56 636.27 499.16
  C 633.05 490.67 625.50 489.05 617.00 488.99
  Q 603.84 488.90 592.72 488.99
  A 1.29 1.28 -0.2 0 0 591.44 490.27
  L 591.44 501.40
  A 0.55 0.55 0.0 0 0 592.00 501.95"
/>
<path stroke="#87b0ce" vector-effect="non-scaling-stroke" d="
  M 587.89 508.37
  A 0.60 0.60 0.0 0 0 587.29 507.77
  L 547.79 507.77
  A 0.60 0.60 0.0 0 0 547.19 508.37
  L 547.19 520.05
  A 0.60 0.60 0.0 0 0 547.79 520.65
  L 587.29 520.65
  A 0.60 0.60 0.0 0 0 587.89 520.05
  L 587.89 508.37"
/>
<path stroke="#87b0ce" vector-effect="non-scaling-stroke" d="
  M 198.9459 511.2174
  A 0.64 0.64 0.0 0 0 198.3048 510.5785
  L 185.1448 510.6015
  A 0.64 0.64 0.0 0 0 184.5059 511.2426
  L 184.5541 538.8226
  A 0.64 0.64 0.0 0 0 185.1952 539.4615
  L 198.3552 539.4385
  A 0.64 0.64 0.0 0 0 198.9941 538.7974
  L 198.9459 511.2174"
/>
<path stroke="#87b0ce" vector-effect="non-scaling-stroke" d="
  M 261.3640 511.2926
  A 0.67 0.67 0.0 0 0 260.6952 510.6214
  L 247.6352 510.5986
  A 0.67 0.67 0.0 0 0 246.9640 511.2675
  L 246.9160 538.8074
  A 0.67 0.67 0.0 0 0 247.5848 539.4786
  L 260.6448 539.5014
  A 0.67 0.67 0.0 0 0 261.3160 538.8325
  L 261.3640 511.2926"
/>
<path stroke="#87b0ce" vector-effect="non-scaling-stroke" d="
  M 587.91 527.02
  A 0.63 0.63 0.0 0 0 587.28 526.39
  L 547.70 526.39
  A 0.63 0.63 0.0 0 0 547.07 527.02
  L 547.07 538.82
  A 0.63 0.63 0.0 0 0 547.70 539.45
  L 587.28 539.45
  A 0.63 0.63 0.0 0 0 587.91 538.82
  L 587.91 527.02"
/>
<path stroke="#afb2b3" vector-effect="non-scaling-stroke" d="
  M 212.21 579.68
  L 224.69 579.68
  A 0.55 0.54 -0.0 0 1 225.24 580.22
  L 225.24 585.95
  A 1.61 1.61 0.0 0 0 226.85 587.56
  L 227.71 587.56
  A 1.57 1.56 89.8 0 0 229.27 585.98
  L 229.15 562.13
  A 2.67 2.66 -82.4 0 0 227.20 559.57
  Q 225.91 559.18 222.50 559.07
  Q 218.06 558.93 206.74 559.20
  Q 203.45 559.28 203.35 562.56
  Q 202.97 574.14 203.52 585.76
  A 1.77 1.76 -1.4 0 0 205.29 587.44
  L 209.69 587.44
  A 1.73 1.73 0.0 0 0 211.42 585.71
  L 211.42 580.46
  A 0.79 0.78 0.0 0 1 212.21 579.68"
/>
<path stroke="#b0b2b5" vector-effect="non-scaling-stroke" d="
  M 254.84 582.76
  L 254.84 559.99
  A 0.97 0.96 90.0 0 0 253.88 559.02
  L 247.59 559.02
  A 0.95 0.95 0.0 0 0 246.64 559.97
  Q 246.51 572.92 246.72 582.81
  C 246.77 585.40 247.38 587.43 250.20 587.44
  Q 263.15 587.52 269.11 587.37
  Q 272.52 587.29 272.53 583.52
  Q 272.59 564.26 272.69 559.98
  A 0.92 0.92 0.0 0 0 271.77 559.04
  L 269.60 559.04
  A 0.93 0.92 -0.0 0 0 268.67 559.96
  L 268.67 582.16
  A 1.26 1.26 0.0 0 1 267.41 583.42
  L 255.51 583.42
  A 0.67 0.66 -0.0 0 1 254.84 582.76"
/>
<path stroke="#b0b2b5" vector-effect="non-scaling-stroke" d="
  M 301.83 587.58
  Q 302.71 587.58 303.01 587.27
  A 1.41 1.39 68.1 0 0 303.41 586.31
  L 303.96 567.71
  A 0.56 0.55 0.5 0 1 304.52 567.17
  L 312.75 567.17
  A 0.88 0.87 -90.0 0 0 313.62 566.29
  L 313.62 559.99
  A 0.96 0.95 89.9 0 0 312.67 559.03
  Q 308.80 559.04 301.80 559.08
  Q 294.80 559.06 290.94 559.06
  A 0.96 0.95 89.9 0 0 289.98 560.02
  L 290.00 566.32
  A 0.88 0.87 89.8 0 0 290.87 567.20
  L 299.10 567.18
  A 0.56 0.55 -0.7 0 1 299.67 567.72
  L 300.27 586.31
  A 1.41 1.39 -68.2 0 0 300.67 587.27
  Q 300.97 587.58 301.83 587.58"
/>
<path stroke="#afb2b3" vector-effect="non-scaling-stroke" d="
  M 356.9913 562.5074
  A 3.43 3.43 0.0 0 0 353.5553 559.0834
  L 334.4953 559.1167
  A 3.43 3.43 0.0 0 0 331.0713 562.5526
  L 331.1087 583.9926
  A 3.43 3.43 0.0 0 0 334.5447 587.4166
  L 353.6047 587.3833
  A 3.43 3.43 0.0 0 0 357.0287 583.9474
  L 356.9913 562.5074"
/>
<path stroke="#b0b2b5" vector-effect="non-scaling-stroke" d="
  M 395.79 560.65
  Q 394.68 559.23 392.75 559.18
  Q 386.45 559.03 380.02 559.12
  Q 377.27 559.16 376.37 559.55
  A 3.00 2.99 -11.6 0 0 374.57 562.28
  L 374.45 586.61
  A 0.89 0.89 0.0 0 0 375.34 587.50
  L 381.81 587.50
  A 0.86 0.85 -0.0 0 0 382.67 586.65
  L 382.67 567.95
  A 0.78 0.78 0.0 0 1 383.45 567.17
  L 391.58 567.17
  A 0.80 0.79 90.0 0 1 392.37 567.97
  L 392.37 586.47
  A 0.99 0.98 0.0 0 0 393.36 587.45
  L 399.75 587.45
  A 0.76 0.76 0.0 0 0 400.51 586.69
  L 400.51 568.00
  A 0.80 0.80 0.0 0 1 401.31 567.20
  L 409.34 567.20
  A 0.95 0.95 0.0 0 1 410.29 568.15
  L 410.29 586.37
  A 1.19 1.19 0.0 0 0 411.48 587.56
  L 413.05 587.56
  A 1.18 1.17 -89.5 0 0 414.22 586.40
  Q 414.38 575.22 414.30 565.83
  C 414.25 559.26 413.44 559.09 406.68 559.11
  Q 400.93 559.13 399.43 559.23
  A 1.45 1.42 25.6 0 0 398.67 559.49
  L 396.73 560.80
  A 0.70 0.70 0.0 0 1 395.79 560.65"
/>
<path stroke="#afb2b3" vector-effect="non-scaling-stroke" d="
  M 440.69 579.70
  L 453.18 579.73
  A 0.55 0.54 0.2 0 1 453.73 580.28
  L 453.71 586.01
  A 1.61 1.61 0.0 0 0 455.32 587.63
  L 456.18 587.63
  A 1.57 1.56 90.0 0 0 457.75 586.05
  L 457.70 562.18
  A 2.68 2.67 -82.2 0 0 455.75 559.61
  Q 454.46 559.21 451.05 559.09
  Q 446.60 558.94 435.27 559.18
  Q 431.97 559.25 431.86 562.53
  Q 431.45 574.12 431.97 585.76
  A 1.77 1.77 0.0 0 0 433.74 587.45
  L 438.14 587.46
  A 1.73 1.73 0.0 0 0 439.88 585.73
  L 439.89 580.48
  A 0.79 0.78 0.2 0 1 440.69 579.70"
/>
<path stroke="#b0b2b5" vector-effect="non-scaling-stroke" d="
  M 486.95 587.53
  Q 487.82 587.53 488.13 587.21
  A 1.40 1.38 68.2 0 0 488.53 586.26
  L 489.12 567.70
  A 0.56 0.55 0.7 0 1 489.68 567.17
  L 497.89 567.19
  A 0.88 0.87 -89.9 0 0 498.76 566.31
  L 498.78 560.02
  A 0.96 0.95 -89.9 0 0 497.83 559.07
  Q 493.98 559.06 486.99 559.09
  Q 480.00 559.05 476.15 559.04
  A 0.96 0.95 -89.9 0 0 475.20 560.00
  L 475.20 566.28
  A 0.88 0.87 90.0 0 0 476.07 567.16
  L 484.28 567.16
  A 0.56 0.55 -0.5 0 1 484.84 567.70
  L 485.39 586.26
  A 1.40 1.38 -68.1 0 0 485.79 587.21
  Q 486.09 587.53 486.95 587.53"
/>
<path stroke="#afb2b3" vector-effect="non-scaling-stroke" d="
  M 524.2966 559.8529
  A 0.80 0.80 0.0 0 0 523.4952 559.0543
  L 516.8952 559.0658
  A 0.80 0.80 0.0 0 0 516.0966 559.8672
  L 516.1434 586.6871
  A 0.80 0.80 0.0 0 0 516.9448 587.4857
  L 523.5448 587.4742
  A 0.80 0.80 0.0 0 0 524.3434 586.6728
  L 524.2966 559.8529"
/>
<path stroke="#b0b2b5" vector-effect="non-scaling-stroke" d="
  M 567.6885 562.6727
  A 3.55 3.55 0.0 0 0 564.1447 559.1165
  L 545.2847 559.0836
  A 3.55 3.55 0.0 0 0 541.7286 562.6274
  L 541.6915 583.8673
  A 3.55 3.55 0.0 0 0 545.2353 587.4235
  L 564.0953 587.4564
  A 3.55 3.55 0.0 0 0 567.6514 583.9126
  L 567.6885 562.6727"
/>
<path stroke="#afb2b3" vector-effect="non-scaling-stroke" d="
  M 586.05 587.43
  L 592.46 587.43
  A 0.84 0.84 0.0 0 0 593.30 586.59
  L 593.30 568.25
  A 1.05 1.05 0.0 0 1 594.35 567.20
  L 606.42 567.20
  A 0.85 0.84 90.0 0 1 607.26 568.05
  L 607.26 586.35
  A 1.16 1.15 0.0 0 0 608.42 587.50
  L 609.67 587.50
  A 1.13 1.13 0.0 0 0 610.80 586.42
  Q 611.25 576.19 611.17 565.50
  Q 611.14 562.55 610.53 560.79
  A 2.24 2.24 0.0 0 0 608.50 559.28
  Q 596.82 558.82 589.72 559.16
  Q 587.80 559.25 587.16 559.44
  A 2.70 2.69 82.0 0 0 585.21 562.03
  L 585.11 586.49
  A 0.94 0.94 0.0 0 0 586.05 587.43"
/>
<path stroke="#86b1ce" vector-effect="non-scaling-stroke" d="
  M 559.16 285.28
  A 7.12 7.12 0.0 0 0 552.04 278.16
  A 7.12 7.12 0.0 0 0 544.92 285.28
  A 7.12 7.12 0.0 0 0 552.04 292.40
  A 7.12 7.12 0.0 0 0 559.16 285.28"
/>
<path stroke="#afb2b3" vector-effect="non-scaling-stroke" d="
  M 237.82 276.11
  A 8.84 8.84 0.0 0 0 228.98 267.27
  A 8.84 8.84 0.0 0 0 220.14 276.11
  A 8.84 8.84 0.0 0 0 228.98 284.95
  A 8.84 8.84 0.0 0 0 237.82 276.11"
/>
<path stroke="#afb2b3" vector-effect="non-scaling-stroke" d="
  M 599.87 347.04
  A 8.85 8.85 0.0 0 0 591.02 338.19
  A 8.85 8.85 0.0 0 0 582.17 347.04
  A 8.85 8.85 0.0 0 0 591.02 355.89
  A 8.85 8.85 0.0 0 0 599.87 347.04"
/>
<path stroke="#afb2b3" vector-effect="non-scaling-stroke" d="
  M 275.07 337.90
  A 7.11 7.11 0.0 0 0 267.96 330.79
  A 7.11 7.11 0.0 0 0 260.85 337.90
  A 7.11 7.11 0.0 0 0 267.96 345.01
  A 7.11 7.11 0.0 0 0 275.07 337.90"
/>
<path stroke="#afb2b3" vector-effect="non-scaling-stroke" d="
  M 225.1880 568.1668
  A 1.12 1.12 0.0 0 0 224.0467 567.0685
  L 212.3888 567.2923
  A 1.12 1.12 0.0 0 0 211.2905 568.4336
  L 211.3320 570.5932
  A 1.12 1.12 0.0 0 0 212.4733 571.6915
  L 224.1312 571.4677
  A 1.12 1.12 0.0 0 0 225.2295 570.3264
  L 225.1880 568.1668"
/>
<path stroke="#afb2b3" vector-effect="non-scaling-stroke" d="
  M 353.0074 568.0779
  A 0.90 0.90 0.0 0 0 352.1058 567.1795
  L 340.0658 567.2005
  A 0.90 0.90 0.0 0 0 339.1674 568.1021
  L 339.1926 582.5821
  A 0.90 0.90 0.0 0 0 340.0942 583.4805
  L 352.1342 583.4595
  A 0.90 0.90 0.0 0 0 353.0326 582.5579
  L 353.0074 568.0779"
/>
<path stroke="#afb2b3" vector-effect="non-scaling-stroke" d="
  M 453.7870 568.2843
  A 1.17 1.17 0.0 0 0 452.6028 567.1287
  L 440.9037 567.2716
  A 1.17 1.17 0.0 0 0 439.7481 568.4558
  L 439.7730 570.4957
  A 1.17 1.17 0.0 0 0 440.9572 571.6513
  L 452.6563 571.5084
  A 1.17 1.17 0.0 0 0 453.8119 570.3242
  L 453.7870 568.2843"
/>
<path stroke="#b0b2b5" vector-effect="non-scaling-stroke" d="
  M 563.6326 568.0720
  A 0.87 0.87 0.0 0 0 562.7642 567.2005
  L 550.7642 567.1795
  A 0.87 0.87 0.0 0 0 549.8927 568.0480
  L 549.8674 582.5480
  A 0.87 0.87 0.0 0 0 550.7358 583.4195
  L 562.7358 583.4405
  A 0.87 0.87 0.0 0 0 563.6073 582.5720
  L 563.6326 568.0720"
/>
</g>
<path fill="#f7fcff" d="
  M 846.00 0.00
  L 846.00 751.00
  L 0.00 751.00
  L 0.00 0.00
  L 846.00 0.00
  Z
  M 520.07 268.82
  A 0.46 0.46 0.0 0 0 520.50 268.19
  Q 516.18 257.16 509.65 247.08
  A 2.02 2.01 -45.2 0 1 509.65 244.89
  L 520.89 227.54
  A 1.28 1.28 0.0 0 0 520.72 225.94
  L 494.28 199.50
  A 1.59 1.58 50.4 0 0 492.27 199.30
  L 474.84 211.05
  A 1.63 1.63 0.0 0 1 473.08 211.08
  Q 455.16 199.82 434.55 195.48
  A 1.69 1.69 0.0 0 1 433.26 194.19
  L 429.01 173.80
  A 1.29 1.29 0.0 0 0 427.75 172.78
  L 389.61 172.78
  A 0.76 0.75 -84.4 0 0 388.87 173.39
  L 384.73 194.70
  A 1.51 1.51 0.0 0 1 383.59 195.88
  Q 362.80 200.68 345.15 212.20
  A 1.45 1.43 44.7 0 1 343.58 212.20
  L 325.80 200.69
  A 1.11 1.11 0.0 0 0 324.41 200.83
  L 297.65 227.60
  A 1.20 1.20 0.0 0 0 297.50 229.12
  L 309.41 246.79
  A 1.54 1.52 43.5 0 1 309.46 248.41
  L 303.60 258.56
  A 0.71 0.71 0.0 0 0 304.21 259.62
  Q 341.94 259.62 342.85 259.60
  C 344.32 259.58 346.29 259.68 347.17 258.66
  Q 368.70 233.84 401.33 229.89
  A 0.56 0.55 -3.2 0 1 401.95 230.44
  L 401.95 251.27
  A 3.67 3.65 -67.6 0 0 403.02 253.86
  L 440.51 291.35
  A 4.20 4.20 0.0 0 0 443.48 292.58
  L 530.76 292.58
  A 1.25 1.24 79.3 0 1 531.92 293.38
  C 535.98 304.11 548.00 309.33 558.68 305.95
  C 572.05 301.72 578.18 285.48 570.31 273.55
  C 560.43 258.57 539.08 260.94 531.97 277.08
  A 1.44 1.43 -77.9 0 1 530.66 277.93
  L 448.95 277.93
  A 2.80 2.80 0.0 0 1 446.97 277.11
  L 417.67 247.80
  A 3.62 3.59 22.7 0 1 416.61 245.25
  L 416.61 230.49
  A 0.80 0.80 0.0 0 1 417.51 229.70
  Q 457.69 234.43 479.84 268.11
  A 1.59 1.58 73.2 0 0 481.16 268.82
  L 520.07 268.82
  Z
  M 404.79 316.71
  Q 421.94 334.03 441.33 353.27
  A 3.81 3.80 -22.5 0 0 444.01 354.37
  L 568.26 354.37
  A 0.66 0.66 0.0 0 1 568.88 354.80
  C 576.18 374.21 602.80 376.20 612.04 357.30
  C 617.55 346.03 613.30 333.07 602.87 326.87
  C 589.98 319.20 574.03 325.62 569.05 339.02
  A 1.11 1.11 0.0 0 1 568.01 339.74
  L 449.56 339.74
  A 2.33 2.28 -22.1 0 1 447.93 339.07
  Q 416.97 308.18 415.25 306.45
  Q 398.10 289.13 378.71 269.90
  A 3.81 3.80 -22.5 0 0 376.03 268.80
  L 251.78 268.80
  A 0.66 0.66 0.0 0 1 251.16 268.37
  C 243.86 248.96 217.24 246.97 208.00 265.87
  C 202.49 277.14 206.74 290.10 217.17 296.30
  C 230.06 303.97 246.01 297.55 250.99 284.15
  A 1.11 1.11 0.0 0 1 252.03 283.43
  L 370.48 283.43
  A 2.33 2.28 -22.1 0 1 372.11 284.10
  Q 403.07 314.98 404.79 316.71
  Z
  M 329.40 292.56
  L 272.00 292.56
  A 0.95 0.95 0.0 0 0 271.05 293.51
  L 271.05 306.18
  A 1.03 1.02 4.2 0 0 271.93 307.19
  Q 285.62 309.26 293.39 320.36
  A 1.60 1.54 -4.5 0 0 294.05 320.90
  Q 295.12 321.38 297.00 321.39
  Q 314.11 321.43 327.86 321.40
  A 0.54 0.53 87.1 0 0 328.39 320.81
  Q 326.84 307.06 329.93 293.22
  A 0.55 0.54 -84.0 0 0 329.40 292.56
  Z
  M 490.65 330.62
  L 548.02 330.56
  A 0.95 0.95 0.0 0 0 548.97 329.61
  L 548.96 316.94
  A 1.03 1.02 4.2 0 0 548.08 315.94
  Q 534.39 313.88 526.61 302.79
  A 1.60 1.54 -4.6 0 0 525.95 302.25
  Q 524.88 301.78 523.00 301.77
  Q 505.90 301.75 492.15 301.79
  A 0.54 0.53 87.0 0 0 491.62 302.38
  Q 493.19 316.12 490.12 329.96
  A 0.55 0.54 -84.0 0 0 490.65 330.62
  Z
  M 299.97 354.37
  A 0.46 0.46 0.0 0 0 299.54 355.00
  Q 303.86 366.03 310.39 376.10
  A 2.02 2.01 -45.2 0 1 310.39 378.29
  L 299.16 395.64
  A 1.28 1.28 0.0 0 0 299.33 397.24
  L 325.77 423.68
  A 1.59 1.58 50.4 0 0 327.78 423.88
  L 345.21 412.12
  A 1.63 1.63 0.0 0 1 346.96 412.09
  Q 364.88 423.35 385.49 427.69
  A 1.69 1.69 0.0 0 1 386.78 428.98
  L 391.03 449.36
  A 1.29 1.29 0.0 0 0 392.29 450.38
  L 430.43 450.38
  A 0.76 0.75 -84.4 0 0 431.17 449.77
  L 435.31 428.46
  A 1.51 1.51 0.0 0 1 436.45 427.28
  Q 457.23 422.48 474.88 410.95
  A 1.45 1.43 44.7 0 1 476.45 410.95
  L 494.23 422.46
  A 1.11 1.11 0.0 0 0 495.62 422.32
  L 522.37 395.55
  A 1.20 1.20 0.0 0 0 522.52 394.03
  L 510.61 376.36
  A 1.54 1.52 43.5 0 1 510.56 374.74
  L 516.42 364.60
  A 0.71 0.71 0.0 0 0 515.80 363.54
  Q 478.08 363.54 477.17 363.56
  C 475.70 363.58 473.73 363.48 472.85 364.50
  Q 451.33 389.32 418.70 393.28
  A 0.56 0.55 -3.2 0 1 418.08 392.73
  L 418.08 371.90
  A 3.67 3.65 -67.6 0 0 417.01 369.31
  L 379.52 331.83
  A 4.20 4.20 0.0 0 0 376.55 330.60
  L 289.28 330.61
  A 1.25 1.24 79.3 0 1 288.12 329.81
  C 284.06 319.09 272.04 313.87 261.36 317.25
  C 247.99 321.48 241.87 337.72 249.74 349.65
  C 259.62 364.62 280.97 362.25 288.07 346.11
  A 1.44 1.43 -78.0 0 1 289.38 345.26
  L 371.08 345.25
  A 2.80 2.80 0.0 0 1 373.06 346.07
  L 402.36 375.37
  A 3.62 3.59 22.7 0 1 403.42 377.92
  L 403.42 392.68
  A 0.80 0.80 0.0 0 1 402.52 393.47
  Q 362.35 388.74 340.20 355.07
  A 1.58 1.58 0.0 0 0 338.88 354.36
  L 299.97 354.37
  Z
  M 307.41 503.73
  L 307.41 491.69
  A 1.15 1.14 8.1 0 0 306.58 490.59
  C 295.50 487.47 268.19 484.30 266.21 501.30
  Q 264.87 512.85 275.92 517.38
  Q 282.99 520.29 292.25 521.95
  Q 294.17 522.30 295.18 524.04
  A 0.52 0.52 0.0 0 1 294.93 524.78
  C 288.04 527.82 276.23 525.91 268.82 524.10
  A 0.74 0.74 0.0 0 0 267.91 524.82
  L 267.91 536.77
  A 1.21 1.21 0.0 0 0 268.81 537.94
  C 280.60 540.99 308.56 543.85 309.88 525.63
  C 310.99 510.37 292.83 508.29 282.61 505.19
  A 1.35 1.26 21.6 0 1 281.76 503.39
  Q 281.87 503.17 282.30 503.03
  Q 285.43 502.02 290.53 502.13
  Q 297.97 502.29 306.77 504.24
  A 0.53 0.52 6.2 0 0 307.41 503.73
  Z
  M 411.57 521.23
  A 0.61 0.61 0.0 0 1 412.18 520.62
  L 426.86 520.62
  A 0.61 0.61 0.0 0 1 427.47 521.23
  L 427.47 538.83
  A 0.61 0.61 0.0 0 0 428.08 539.44
  L 441.29 539.44
  A 0.61 0.61 0.0 0 0 441.90 538.83
  L 441.90 508.41
  A 0.61 0.61 0.0 0 0 441.29 507.80
  L 412.18 507.80
  A 0.61 0.61 0.0 0 1 411.57 507.19
  L 411.57 489.56
  A 0.61 0.61 0.0 0 0 410.96 488.95
  L 397.74 488.95
  A 0.61 0.61 0.0 0 0 397.13 489.56
  L 397.13 538.85
  A 0.61 0.61 0.0 0 0 397.74 539.46
  L 410.96 539.46
  A 0.61 0.61 0.0 0 0 411.57 538.85
  L 411.57 521.23
  Z
  M 514.05 538.83
  L 514.05 528.65
  A 0.68 0.68 0.0 0 1 514.76 527.97
  C 524.06 528.33 536.65 528.34 540.93 518.30
  Q 543.81 511.55 542.29 502.94
  C 540.55 493.12 533.39 489.49 524.22 489.08
  Q 520.55 488.92 500.35 488.93
  A 0.85 0.84 0.0 0 0 499.50 489.77
  L 499.50 501.25
  A 0.81 0.81 0.0 0 0 500.34 502.06
  Q 511.47 501.62 521.89 502.07
  Q 523.37 502.14 525.18 502.86
  C 528.93 504.36 528.92 511.41 525.82 513.49
  Q 523.92 514.77 522.24 514.83
  Q 512.85 515.19 500.44 514.80
  A 0.93 0.93 0.0 0 0 499.48 515.73
  L 499.48 538.82
  A 0.66 0.65 -0.0 0 0 500.14 539.47
  L 513.41 539.47
  A 0.64 0.64 0.0 0 0 514.05 538.83
  Z
  M 222.99 535.46
  Q 223.31 535.46 223.40 535.36
  Q 234.51 521.67 260.60 489.88
  A 0.58 0.58 0.0 0 0 260.16 488.93
  L 245.63 488.93
  A 3.47 3.44 -70.2 0 0 242.96 490.20
  Q 234.54 500.54 223.41 514.18
  Q 223.24 514.38 222.98 514.38
  Q 222.71 514.38 222.55 514.18
  Q 211.41 500.55 202.99 490.21
  A 3.47 3.44 70.1 0 0 200.32 488.94
  L 185.79 488.95
  A 0.58 0.58 0.0 0 0 185.35 489.90
  Q 211.45 521.68 222.57 535.36
  Q 222.66 535.46 222.99 535.46
  Z
  M 338.89 503.70
  A 0.37 0.37 0.0 0 1 339.38 503.92
  L 346.91 525.53
  A 0.68 0.68 0.0 0 1 346.27 526.43
  L 338.07 526.43
  A 1.60 1.60 0.0 0 0 336.56 527.51
  L 332.70 538.61
  A 0.65 0.65 0.0 0 0 333.31 539.47
  L 365.26 539.47
  A 0.67 0.67 0.0 0 0 365.89 538.58
  L 348.97 489.99
  A 1.53 1.53 0.0 0 0 347.53 488.97
  L 329.90 488.97
  A 0.83 0.82 9.4 0 0 329.12 489.52
  L 312.00 538.79
  A 0.50 0.50 0.0 0 0 312.47 539.45
  L 325.69 539.45
  A 0.68 0.67 8.9 0 0 326.33 538.99
  Q 336.12 510.90 338.19 504.75
  Q 338.49 503.88 338.89 503.70
  Z
  M 441.96 489.82
  A 0.88 0.88 0.0 0 0 441.08 488.94
  L 428.36 488.94
  A 0.88 0.88 0.0 0 0 427.48 489.82
  L 427.48 501.04
  A 0.88 0.88 0.0 0 0 428.36 501.92
  L 441.08 501.92
  A 0.88 0.88 0.0 0 0 441.96 501.04
  L 441.96 489.82
  Z
  M 463.59 527.45
  A 0.68 0.68 0.0 0 1 463.66 527.75
  L 463.66 538.82
  A 0.68 0.68 0.0 0 0 464.34 539.50
  L 477.58 539.50
  A 0.68 0.68 0.0 0 0 478.26 538.82
  L 478.26 526.58
  A 0.68 0.68 0.0 0 0 478.19 526.28
  L 460.40 489.34
  A 0.68 0.68 0.0 0 0 459.78 488.96
  L 446.13 488.96
  A 0.68 0.68 0.0 0 0 445.52 489.94
  L 463.59 527.45
  Z
  M 482.17 488.95
  A 0.70 0.70 0.0 0 0 481.54 489.35
  L 476.01 500.91
  A 0.70 0.70 0.0 0 0 476.64 501.91
  L 490.27 501.91
  A 0.70 0.70 0.0 0 0 490.90 501.51
  L 496.42 489.95
  A 0.70 0.70 0.0 0 0 495.79 488.95
  L 482.17 488.95
  Z
  M 587.83 489.64
  A 0.69 0.69 0.0 0 0 587.14 488.95
  L 547.80 488.95
  A 0.69 0.69 0.0 0 0 547.11 489.64
  L 547.11 501.20
  A 0.69 0.69 0.0 0 0 547.80 501.89
  L 587.14 501.89
  A 0.69 0.69 0.0 0 0 587.83 501.20
  L 587.83 489.64
  Z
  M 592.00 501.95
  Q 610.39 501.82 616.76 502.00
  C 621.99 502.15 623.81 505.69 622.31 510.37
  C 621.50 512.91 618.34 513.45 615.99 513.46
  Q 601.66 513.48 599.35 513.50
  A 0.56 0.56 0.0 0 0 598.79 514.06
  L 598.79 525.71
  A 0.68 0.67 -90.0 0 0 599.46 526.39
  L 605.40 526.39
  A 1.52 1.50 -19.3 0 1 606.57 526.94
  L 615.96 538.35
  A 3.07 3.07 0.0 0 0 618.33 539.47
  L 633.22 539.47
  A 0.48 0.48 0.0 0 0 633.59 538.68
  L 623.90 526.90
  A 0.74 0.73 -24.4 0 1 624.35 525.71
  C 637.30 523.52 640.22 509.56 636.27 499.16
  C 633.05 490.67 625.50 489.05 617.00 488.99
  Q 603.84 488.90 592.72 488.99
  A 1.29 1.28 -0.2 0 0 591.44 490.27
  L 591.44 501.40
  A 0.55 0.55 0.0 0 0 592.00 501.95
  Z
  M 587.89 508.37
  A 0.60 0.60 0.0 0 0 587.29 507.77
  L 547.79 507.77
  A 0.60 0.60 0.0 0 0 547.19 508.37
  L 547.19 520.05
  A 0.60 0.60 0.0 0 0 547.79 520.65
  L 587.29 520.65
  A 0.60 0.60 0.0 0 0 587.89 520.05
  L 587.89 508.37
  Z
  M 198.9459 511.2174
  A 0.64 0.64 0.0 0 0 198.3048 510.5785
  L 185.1448 510.6015
  A 0.64 0.64 0.0 0 0 184.5059 511.2426
  L 184.5541 538.8226
  A 0.64 0.64 0.0 0 0 185.1952 539.4615
  L 198.3552 539.4385
  A 0.64 0.64 0.0 0 0 198.9941 538.7974
  L 198.9459 511.2174
  Z
  M 261.3640 511.2926
  A 0.67 0.67 0.0 0 0 260.6952 510.6214
  L 247.6352 510.5986
  A 0.67 0.67 0.0 0 0 246.9640 511.2675
  L 246.9160 538.8074
  A 0.67 0.67 0.0 0 0 247.5848 539.4786
  L 260.6448 539.5014
  A 0.67 0.67 0.0 0 0 261.3160 538.8325
  L 261.3640 511.2926
  Z
  M 587.91 527.02
  A 0.63 0.63 0.0 0 0 587.28 526.39
  L 547.70 526.39
  A 0.63 0.63 0.0 0 0 547.07 527.02
  L 547.07 538.82
  A 0.63 0.63 0.0 0 0 547.70 539.45
  L 587.28 539.45
  A 0.63 0.63 0.0 0 0 587.91 538.82
  L 587.91 527.02
  Z
  M 212.21 579.68
  L 224.69 579.68
  A 0.55 0.54 -0.0 0 1 225.24 580.22
  L 225.24 585.95
  A 1.61 1.61 0.0 0 0 226.85 587.56
  L 227.71 587.56
  A 1.57 1.56 89.8 0 0 229.27 585.98
  L 229.15 562.13
  A 2.67 2.66 -82.4 0 0 227.20 559.57
  Q 225.91 559.18 222.50 559.07
  Q 218.06 558.93 206.74 559.20
  Q 203.45 559.28 203.35 562.56
  Q 202.97 574.14 203.52 585.76
  A 1.77 1.76 -1.4 0 0 205.29 587.44
  L 209.69 587.44
  A 1.73 1.73 0.0 0 0 211.42 585.71
  L 211.42 580.46
  A 0.79 0.78 0.0 0 1 212.21 579.68
  Z
  M 254.84 582.76
  L 254.84 559.99
  A 0.97 0.96 90.0 0 0 253.88 559.02
  L 247.59 559.02
  A 0.95 0.95 0.0 0 0 246.64 559.97
  Q 246.51 572.92 246.72 582.81
  C 246.77 585.40 247.38 587.43 250.20 587.44
  Q 263.15 587.52 269.11 587.37
  Q 272.52 587.29 272.53 583.52
  Q 272.59 564.26 272.69 559.98
  A 0.92 0.92 0.0 0 0 271.77 559.04
  L 269.60 559.04
  A 0.93 0.92 -0.0 0 0 268.67 559.96
  L 268.67 582.16
  A 1.26 1.26 0.0 0 1 267.41 583.42
  L 255.51 583.42
  A 0.67 0.66 -0.0 0 1 254.84 582.76
  Z
  M 301.83 587.58
  Q 302.71 587.58 303.01 587.27
  A 1.41 1.39 68.1 0 0 303.41 586.31
  L 303.96 567.71
  A 0.56 0.55 0.5 0 1 304.52 567.17
  L 312.75 567.17
  A 0.88 0.87 -90.0 0 0 313.62 566.29
  L 313.62 559.99
  A 0.96 0.95 89.9 0 0 312.67 559.03
  Q 308.80 559.04 301.80 559.08
  Q 294.80 559.06 290.94 559.06
  A 0.96 0.95 89.9 0 0 289.98 560.02
  L 290.00 566.32
  A 0.88 0.87 89.8 0 0 290.87 567.20
  L 299.10 567.18
  A 0.56 0.55 -0.7 0 1 299.67 567.72
  L 300.27 586.31
  A 1.41 1.39 -68.2 0 0 300.67 587.27
  Q 300.97 587.58 301.83 587.58
  Z
  M 356.9913 562.5074
  A 3.43 3.43 0.0 0 0 353.5553 559.0834
  L 334.4953 559.1167
  A 3.43 3.43 0.0 0 0 331.0713 562.5526
  L 331.1087 583.9926
  A 3.43 3.43 0.0 0 0 334.5447 587.4166
  L 353.6047 587.3833
  A 3.43 3.43 0.0 0 0 357.0287 583.9474
  L 356.9913 562.5074
  Z
  M 395.79 560.65
  Q 394.68 559.23 392.75 559.18
  Q 386.45 559.03 380.02 559.12
  Q 377.27 559.16 376.37 559.55
  A 3.00 2.99 -11.6 0 0 374.57 562.28
  L 374.45 586.61
  A 0.89 0.89 0.0 0 0 375.34 587.50
  L 381.81 587.50
  A 0.86 0.85 -0.0 0 0 382.67 586.65
  L 382.67 567.95
  A 0.78 0.78 0.0 0 1 383.45 567.17
  L 391.58 567.17
  A 0.80 0.79 90.0 0 1 392.37 567.97
  L 392.37 586.47
  A 0.99 0.98 0.0 0 0 393.36 587.45
  L 399.75 587.45
  A 0.76 0.76 0.0 0 0 400.51 586.69
  L 400.51 568.00
  A 0.80 0.80 0.0 0 1 401.31 567.20
  L 409.34 567.20
  A 0.95 0.95 0.0 0 1 410.29 568.15
  L 410.29 586.37
  A 1.19 1.19 0.0 0 0 411.48 587.56
  L 413.05 587.56
  A 1.18 1.17 -89.5 0 0 414.22 586.40
  Q 414.38 575.22 414.30 565.83
  C 414.25 559.26 413.44 559.09 406.68 559.11
  Q 400.93 559.13 399.43 559.23
  A 1.45 1.42 25.6 0 0 398.67 559.49
  L 396.73 560.80
  A 0.70 0.70 0.0 0 1 395.79 560.65
  Z
  M 440.69 579.70
  L 453.18 579.73
  A 0.55 0.54 0.2 0 1 453.73 580.28
  L 453.71 586.01
  A 1.61 1.61 0.0 0 0 455.32 587.63
  L 456.18 587.63
  A 1.57 1.56 90.0 0 0 457.75 586.05
  L 457.70 562.18
  A 2.68 2.67 -82.2 0 0 455.75 559.61
  Q 454.46 559.21 451.05 559.09
  Q 446.60 558.94 435.27 559.18
  Q 431.97 559.25 431.86 562.53
  Q 431.45 574.12 431.97 585.76
  A 1.77 1.77 0.0 0 0 433.74 587.45
  L 438.14 587.46
  A 1.73 1.73 0.0 0 0 439.88 585.73
  L 439.89 580.48
  A 0.79 0.78 0.2 0 1 440.69 579.70
  Z
  M 486.95 587.53
  Q 487.82 587.53 488.13 587.21
  A 1.40 1.38 68.2 0 0 488.53 586.26
  L 489.12 567.70
  A 0.56 0.55 0.7 0 1 489.68 567.17
  L 497.89 567.19
  A 0.88 0.87 -89.9 0 0 498.76 566.31
  L 498.78 560.02
  A 0.96 0.95 -89.9 0 0 497.83 559.07
  Q 493.98 559.06 486.99 559.09
  Q 480.00 559.05 476.15 559.04
  A 0.96 0.95 -89.9 0 0 475.20 560.00
  L 475.20 566.28
  A 0.88 0.87 90.0 0 0 476.07 567.16
  L 484.28 567.16
  A 0.56 0.55 -0.5 0 1 484.84 567.70
  L 485.39 586.26
  A 1.40 1.38 -68.1 0 0 485.79 587.21
  Q 486.09 587.53 486.95 587.53
  Z
  M 524.2966 559.8529
  A 0.80 0.80 0.0 0 0 523.4952 559.0543
  L 516.8952 559.0658
  A 0.80 0.80 0.0 0 0 516.0966 559.8672
  L 516.1434 586.6871
  A 0.80 0.80 0.0 0 0 516.9448 587.4857
  L 523.5448 587.4742
  A 0.80 0.80 0.0 0 0 524.3434 586.6728
  L 524.2966 559.8529
  Z
  M 567.6885 562.6727
  A 3.55 3.55 0.0 0 0 564.1447 559.1165
  L 545.2847 559.0836
  A 3.55 3.55 0.0 0 0 541.7286 562.6274
  L 541.6915 583.8673
  A 3.55 3.55 0.0 0 0 545.2353 587.4235
  L 564.0953 587.4564
  A 3.55 3.55 0.0 0 0 567.6514 583.9126
  L 567.6885 562.6727
  Z
  M 586.05 587.43
  L 592.46 587.43
  A 0.84 0.84 0.0 0 0 593.30 586.59
  L 593.30 568.25
  A 1.05 1.05 0.0 0 1 594.35 567.20
  L 606.42 567.20
  A 0.85 0.84 90.0 0 1 607.26 568.05
  L 607.26 586.35
  A 1.16 1.15 0.0 0 0 608.42 587.50
  L 609.67 587.50
  A 1.13 1.13 0.0 0 0 610.80 586.42
  Q 611.25 576.19 611.17 565.50
  Q 611.14 562.55 610.53 560.79
  A 2.24 2.24 0.0 0 0 608.50 559.28
  Q 596.82 558.82 589.72 559.16
  Q 587.80 559.25 587.16 559.44
  A 2.70 2.69 82.0 0 0 585.21 562.03
  L 585.11 586.49
  A 0.94 0.94 0.0 0 0 586.05 587.43
  Z"
/>
<path fill="#15669c" d="
  M 520.07 268.82
  L 481.16 268.82
  A 1.59 1.58 73.2 0 1 479.84 268.11
  Q 457.69 234.43 417.51 229.70
  A 0.80 0.80 0.0 0 0 416.61 230.49
  L 416.61 245.25
  A 3.62 3.59 22.7 0 0 417.67 247.80
  L 446.97 277.11
  A 2.80 2.80 0.0 0 0 448.95 277.93
  L 530.66 277.93
  A 1.44 1.43 -77.9 0 0 531.97 277.08
  C 539.08 260.94 560.43 258.57 570.31 273.55
  C 578.18 285.48 572.05 301.72 558.68 305.95
  C 548.00 309.33 535.98 304.11 531.92 293.38
  A 1.25 1.24 79.3 0 0 530.76 292.58
  L 443.48 292.58
  A 4.20 4.20 0.0 0 1 440.51 291.35
  L 403.02 253.86
  A 3.67 3.65 -67.6 0 1 401.95 251.27
  L 401.95 230.44
  A 0.56 0.55 -3.2 0 0 401.33 229.89
  Q 368.70 233.84 347.17 258.66
  C 346.29 259.68 344.32 259.58 342.85 259.60
  Q 341.94 259.62 304.21 259.62
  A 0.71 0.71 0.0 0 1 303.60 258.56
  L 309.46 248.41
  A 1.54 1.52 43.5 0 0 309.41 246.79
  L 297.50 229.12
  A 1.20 1.20 0.0 0 1 297.65 227.60
  L 324.41 200.83
  A 1.11 1.11 0.0 0 1 325.80 200.69
  L 343.58 212.20
  A 1.45 1.43 44.7 0 0 345.15 212.20
  Q 362.80 200.68 383.59 195.88
  A 1.51 1.51 0.0 0 0 384.73 194.70
  L 388.87 173.39
  A 0.76 0.75 -84.4 0 1 389.61 172.78
  L 427.75 172.78
  A 1.29 1.29 0.0 0 1 429.01 173.80
  L 433.26 194.19
  A 1.69 1.69 0.0 0 0 434.55 195.48
  Q 455.16 199.82 473.08 211.08
  A 1.63 1.63 0.0 0 0 474.84 211.05
  L 492.27 199.30
  A 1.59 1.58 50.4 0 1 494.28 199.50
  L 520.72 225.94
  A 1.28 1.28 0.0 0 1 520.89 227.54
  L 509.65 244.89
  A 2.02 2.01 -45.2 0 0 509.65 247.08
  Q 516.18 257.16 520.50 268.19
  A 0.46 0.46 0.0 0 1 520.07 268.82
  Z
  M 559.16 285.28
  A 7.12 7.12 0.0 0 0 552.04 278.16
  A 7.12 7.12 0.0 0 0 544.92 285.28
  A 7.12 7.12 0.0 0 0 552.04 292.40
  A 7.12 7.12 0.0 0 0 559.16 285.28
  Z"
/>
<path fill="#676767" d="
  M 404.79 316.71
  Q 403.07 314.98 372.11 284.10
  A 2.33 2.28 -22.1 0 0 370.48 283.43
  L 252.03 283.43
  A 1.11 1.11 0.0 0 0 250.99 284.15
  C 246.01 297.55 230.06 303.97 217.17 296.30
  C 206.74 290.10 202.49 277.14 208.00 265.87
  C 217.24 246.97 243.86 248.96 251.16 268.37
  A 0.66 0.66 0.0 0 0 251.78 268.80
  L 376.03 268.80
  A 3.81 3.80 -22.5 0 1 378.71 269.90
  Q 398.10 289.13 415.25 306.45
  Q 416.97 308.18 447.93 339.07
  A 2.33 2.28 -22.1 0 0 449.56 339.74
  L 568.01 339.74
  A 1.11 1.11 0.0 0 0 569.05 339.02
  C 574.03 325.62 589.98 319.20 602.87 326.87
  C 613.30 333.07 617.55 346.03 612.04 357.30
  C 602.80 376.20 576.18 374.21 568.88 354.80
  A 0.66 0.66 0.0 0 0 568.26 354.37
  L 444.01 354.37
  A 3.81 3.80 -22.5 0 1 441.33 353.27
  Q 421.94 334.03 404.79 316.71
  Z
  M 237.82 276.11
  A 8.84 8.84 0.0 0 0 228.98 267.27
  A 8.84 8.84 0.0 0 0 220.14 276.11
  A 8.84 8.84 0.0 0 0 228.98 284.95
  A 8.84 8.84 0.0 0 0 237.82 276.11
  Z
  M 599.87 347.04
  A 8.85 8.85 0.0 0 0 591.02 338.19
  A 8.85 8.85 0.0 0 0 582.17 347.04
  A 8.85 8.85 0.0 0 0 591.02 355.89
  A 8.85 8.85 0.0 0 0 599.87 347.04
  Z"
/>
<circle fill="#f7fcff" cx="228.98" cy="276.11" r="8.84"/>
<circle fill="#f7fcff" cx="552.04" cy="285.28" r="7.12"/>
<path fill="#15669c" d="
  M 329.40 292.56
  A 0.55 0.54 -84.0 0 1 329.93 293.22
  Q 326.84 307.06 328.39 320.81
  A 0.54 0.53 87.1 0 1 327.86 321.40
  Q 314.11 321.43 297.00 321.39
  Q 295.12 321.38 294.05 320.90
  A 1.60 1.54 -4.5 0 1 293.39 320.36
  Q 285.62 309.26 271.93 307.19
  A 1.03 1.02 4.2 0 1 271.05 306.18
  L 271.05 293.51
  A 0.95 0.95 0.0 0 1 272.00 292.56
  L 329.40 292.56
  Z"
/>
<path fill="#15669c" d="
  M 490.65 330.62
  A 0.55 0.54 -84.0 0 1 490.12 329.96
  Q 493.19 316.12 491.62 302.38
  A 0.54 0.53 87.0 0 1 492.15 301.79
  Q 505.90 301.75 523.00 301.77
  Q 524.88 301.78 525.95 302.25
  A 1.60 1.54 -4.6 0 1 526.61 302.79
  Q 534.39 313.88 548.08 315.94
  A 1.03 1.02 4.2 0 1 548.96 316.94
  L 548.97 329.61
  A 0.95 0.95 0.0 0 1 548.02 330.56
  L 490.65 330.62
  Z"
/>
<path fill="#676767" d="
  M 299.97 354.37
  L 338.88 354.36
  A 1.58 1.58 0.0 0 1 340.20 355.07
  Q 362.35 388.74 402.52 393.47
  A 0.80 0.80 0.0 0 0 403.42 392.68
  L 403.42 377.92
  A 3.62 3.59 22.7 0 0 402.36 375.37
  L 373.06 346.07
  A 2.80 2.80 0.0 0 0 371.08 345.25
  L 289.38 345.26
  A 1.44 1.43 -78.0 0 0 288.07 346.11
  C 280.97 362.25 259.62 364.62 249.74 349.65
  C 241.87 337.72 247.99 321.48 261.36 317.25
  C 272.04 313.87 284.06 319.09 288.12 329.81
  A 1.25 1.24 79.3 0 0 289.28 330.61
  L 376.55 330.60
  A 4.20 4.20 0.0 0 1 379.52 331.83
  L 417.01 369.31
  A 3.67 3.65 -67.6 0 1 418.08 371.90
  L 418.08 392.73
  A 0.56 0.55 -3.2 0 0 418.70 393.28
  Q 451.33 389.32 472.85 364.50
  C 473.73 363.48 475.70 363.58 477.17 363.56
  Q 478.08 363.54 515.80 363.54
  A 0.71 0.71 0.0 0 1 516.42 364.60
  L 510.56 374.74
  A 1.54 1.52 43.5 0 0 510.61 376.36
  L 522.52 394.03
  A 1.20 1.20 0.0 0 1 522.37 395.55
  L 495.62 422.32
  A 1.11 1.11 0.0 0 1 494.23 422.46
  L 476.45 410.95
  A 1.45 1.43 44.7 0 0 474.88 410.95
  Q 457.23 422.48 436.45 427.28
  A 1.51 1.51 0.0 0 0 435.31 428.46
  L 431.17 449.77
  A 0.76 0.75 -84.4 0 1 430.43 450.38
  L 392.29 450.38
  A 1.29 1.29 0.0 0 1 391.03 449.36
  L 386.78 428.98
  A 1.69 1.69 0.0 0 0 385.49 427.69
  Q 364.88 423.35 346.96 412.09
  A 1.63 1.63 0.0 0 0 345.21 412.12
  L 327.78 423.88
  A 1.59 1.58 50.4 0 1 325.77 423.68
  L 299.33 397.24
  A 1.28 1.28 0.0 0 1 299.16 395.64
  L 310.39 378.29
  A 2.02 2.01 -45.2 0 0 310.39 376.10
  Q 303.86 366.03 299.54 355.00
  A 0.46 0.46 0.0 0 1 299.97 354.37
  Z
  M 275.07 337.90
  A 7.11 7.11 0.0 0 0 267.96 330.79
  A 7.11 7.11 0.0 0 0 260.85 337.90
  A 7.11 7.11 0.0 0 0 267.96 345.01
  A 7.11 7.11 0.0 0 0 275.07 337.90
  Z"
/>
<circle fill="#f7fcff" cx="267.96" cy="337.90" r="7.11"/>
<circle fill="#f7fcff" cx="591.02" cy="347.04" r="8.85"/>
<path fill="#16649c" d="
  M 307.41 503.73
  A 0.53 0.52 6.2 0 1 306.77 504.24
  Q 297.97 502.29 290.53 502.13
  Q 285.43 502.02 282.30 503.03
  Q 281.87 503.17 281.76 503.39
  A 1.35 1.26 21.6 0 0 282.61 505.19
  C 292.83 508.29 310.99 510.37 309.88 525.63
  C 308.56 543.85 280.60 540.99 268.81 537.94
  A 1.21 1.21 0.0 0 1 267.91 536.77
  L 267.91 524.82
  A 0.74 0.74 0.0 0 1 268.82 524.10
  C 276.23 525.91 288.04 527.82 294.93 524.78
  A 0.52 0.52 0.0 0 0 295.18 524.04
  Q 294.17 522.30 292.25 521.95
  Q 282.99 520.29 275.92 517.38
  Q 264.87 512.85 266.21 501.30
  C 268.19 484.30 295.50 487.47 306.58 490.59
  A 1.15 1.14 8.1 0 1 307.41 491.69
  L 307.41 503.73
  Z"
/>
<path fill="#16649c" d="
  M 411.57 521.23
  L 411.57 538.85
  A 0.61 0.61 0.0 0 1 410.96 539.46
  L 397.74 539.46
  A 0.61 0.61 0.0 0 1 397.13 538.85
  L 397.13 489.56
  A 0.61 0.61 0.0 0 1 397.74 488.95
  L 410.96 488.95
  A 0.61 0.61 0.0 0 1 411.57 489.56
  L 411.57 507.19
  A 0.61 0.61 0.0 0 0 412.18 507.80
  L 441.29 507.80
  A 0.61 0.61 0.0 0 1 441.90 508.41
  L 441.90 538.83
  A 0.61 0.61 0.0 0 1 441.29 539.44
  L 428.08 539.44
  A 0.61 0.61 0.0 0 1 427.47 538.83
  L 427.47 521.23
  A 0.61 0.61 0.0 0 0 426.86 520.62
  L 412.18 520.62
  A 0.61 0.61 0.0 0 0 411.57 521.23
  Z"
/>
<path fill="#16649c" d="
  M 514.05 538.83
  A 0.64 0.64 0.0 0 1 513.41 539.47
  L 500.14 539.47
  A 0.66 0.65 -0.0 0 1 499.48 538.82
  L 499.48 515.73
  A 0.93 0.93 0.0 0 1 500.44 514.80
  Q 512.85 515.19 522.24 514.83
  Q 523.92 514.77 525.82 513.49
  C 528.92 511.41 528.93 504.36 525.18 502.86
  Q 523.37 502.14 521.89 502.07
  Q 511.47 501.62 500.34 502.06
  A 0.81 0.81 0.0 0 1 499.50 501.25
  L 499.50 489.77
  A 0.85 0.84 -0.0 0 1 500.35 488.93
  Q 520.55 488.92 524.22 489.08
  C 533.39 489.49 540.55 493.12 542.29 502.94
  Q 543.81 511.55 540.93 518.30
  C 536.65 528.34 524.06 528.33 514.76 527.97
  A 0.68 0.68 0.0 0 0 514.05 528.65
  L 514.05 538.83
  Z"
/>
<path fill="#16649c" d="
  M 222.98 514.38
  Q 223.24 514.38 223.41 514.18
  Q 234.54 500.54 242.96 490.20
  A 3.47 3.44 -70.2 0 1 245.63 488.93
  L 260.16 488.93
  A 0.58 0.58 0.0 0 1 260.60 489.88
  Q 234.51 521.67 223.40 535.36
  Q 223.31 535.46 222.99 535.46
  Q 222.66 535.46 222.57 535.36
  Q 211.45 521.68 185.35 489.90
  A 0.58 0.58 0.0 0 1 185.79 488.95
  L 200.32 488.94
  A 3.47 3.44 70.1 0 1 202.99 490.21
  Q 211.41 500.55 222.55 514.18
  Q 222.71 514.38 222.98 514.38
  Z"
/>
<path fill="#16649c" d="
  M 338.89 503.70
  Q 338.49 503.88 338.19 504.75
  Q 336.12 510.90 326.33 538.99
  A 0.68 0.67 8.9 0 1 325.69 539.45
  L 312.47 539.45
  A 0.50 0.50 0.0 0 1 312.00 538.79
  L 329.12 489.52
  A 0.83 0.82 9.4 0 1 329.90 488.97
  L 347.53 488.97
  A 1.53 1.53 0.0 0 1 348.97 489.99
  L 365.89 538.58
  A 0.67 0.67 0.0 0 1 365.26 539.47
  L 333.31 539.47
  A 0.65 0.65 0.0 0 1 332.70 538.61
  L 336.56 527.51
  A 1.60 1.60 0.0 0 1 338.07 526.43
  L 346.27 526.43
  A 0.68 0.68 0.0 0 0 346.91 525.53
  L 339.38 503.92
  A 0.37 0.37 0.0 0 0 338.89 503.70
  Z"
/>
<rect fill="#16649c" x="427.48" y="488.94" width="14.48" height="12.98" rx="0.88"/>
<path fill="#16649c" d="
  M 463.59 527.45
  L 445.52 489.94
  A 0.68 0.68 0.0 0 1 446.13 488.96
  L 459.78 488.96
  A 0.68 0.68 0.0 0 1 460.40 489.34
  L 478.19 526.28
  A 0.68 0.68 0.0 0 1 478.26 526.58
  L 478.26 538.82
  A 0.68 0.68 0.0 0 1 477.58 539.50
  L 464.34 539.50
  A 0.68 0.68 0.0 0 1 463.66 538.82
  L 463.66 527.75
  A 0.68 0.68 0.0 0 0 463.59 527.45
  Z"
/>
<path fill="#16649c" d="
  M 482.17 488.95
  L 495.79 488.95
  A 0.70 0.70 0.0 0 1 496.42 489.95
  L 490.90 501.51
  A 0.70 0.70 0.0 0 1 490.27 501.91
  L 476.64 501.91
  A 0.70 0.70 0.0 0 1 476.01 500.91
  L 481.54 489.35
  A 0.70 0.70 0.0 0 1 482.17 488.95
  Z"
/>
<rect fill="#16649c" x="547.11" y="488.95" width="40.72" height="12.94" rx="0.69"/>
<path fill="#16649c" d="
  M 592.00 501.95
  A 0.55 0.55 0.0 0 1 591.44 501.40
  L 591.44 490.27
  A 1.29 1.28 -0.2 0 1 592.72 488.99
  Q 603.84 488.90 617.00 488.99
  C 625.50 489.05 633.05 490.67 636.27 499.16
  C 640.22 509.56 637.30 523.52 624.35 525.71
  A 0.74 0.73 -24.4 0 0 623.90 526.90
  L 633.59 538.68
  A 0.48 0.48 0.0 0 1 633.22 539.47
  L 618.33 539.47
  A 3.07 3.07 0.0 0 1 615.96 538.35
  L 606.57 526.94
  A 1.52 1.50 -19.3 0 0 605.40 526.39
  L 599.46 526.39
  A 0.68 0.67 -90.0 0 1 598.79 525.71
  L 598.79 514.06
  A 0.56 0.56 0.0 0 1 599.35 513.50
  Q 601.66 513.48 615.99 513.46
  C 618.34 513.45 621.50 512.91 622.31 510.37
  C 623.81 505.69 621.99 502.15 616.76 502.00
  Q 610.39 501.82 592.00 501.95
  Z"
/>
<rect fill="#16649c" x="547.19" y="507.77" width="40.70" height="12.88" rx="0.60"/>
<rect fill="#16649c" x="-7.22" y="-14.43" transform="translate(191.75,525.02) rotate(-0.1)" width="14.44" height="28.86" rx="0.64"/>
<rect fill="#16649c" x="-7.20" y="-14.44" transform="translate(254.14,525.05) rotate(0.1)" width="14.40" height="28.88" rx="0.67"/>
<rect fill="#16649c" x="547.07" y="526.39" width="40.84" height="13.06" rx="0.63"/>
<path fill="#676767" d="
  M 211.42 580.46
  L 211.42 585.71
  A 1.73 1.73 0.0 0 1 209.69 587.44
  L 205.29 587.44
  A 1.77 1.76 -1.4 0 1 203.52 585.76
  Q 202.97 574.14 203.35 562.56
  Q 203.45 559.28 206.74 559.20
  Q 218.06 558.93 222.50 559.07
  Q 225.91 559.18 227.20 559.57
  A 2.67 2.66 -82.4 0 1 229.15 562.13
  L 229.27 585.98
  A 1.57 1.56 89.8 0 1 227.71 587.56
  L 226.85 587.56
  A 1.61 1.61 0.0 0 1 225.24 585.95
  L 225.24 580.22
  A 0.55 0.54 -0.0 0 0 224.69 579.68
  L 212.21 579.68
  A 0.79 0.78 -0.0 0 0 211.42 580.46
  Z
  M 225.1880 568.1668
  A 1.12 1.12 0.0 0 0 224.0467 567.0685
  L 212.3888 567.2923
  A 1.12 1.12 0.0 0 0 211.2905 568.4336
  L 211.3320 570.5932
  A 1.12 1.12 0.0 0 0 212.4733 571.6915
  L 224.1312 571.4677
  A 1.12 1.12 0.0 0 0 225.2295 570.3264
  L 225.1880 568.1668
  Z"
/>
<path fill="#68686a" d="
  M 254.84 582.76
  A 0.67 0.66 -0.0 0 0 255.51 583.42
  L 267.41 583.42
  A 1.26 1.26 0.0 0 0 268.67 582.16
  L 268.67 559.96
  A 0.93 0.92 -0.0 0 1 269.60 559.04
  L 271.77 559.04
  A 0.92 0.92 0.0 0 1 272.69 559.98
  Q 272.59 564.26 272.53 583.52
  Q 272.52 587.29 269.11 587.37
  Q 263.15 587.52 250.20 587.44
  C 247.38 587.43 246.77 585.40 246.72 582.81
  Q 246.51 572.92 246.64 559.97
  A 0.95 0.95 0.0 0 1 247.59 559.02
  L 253.88 559.02
  A 0.97 0.96 -90.0 0 1 254.84 559.99
  L 254.84 582.76
  Z"
/>
<path fill="#68686a" d="
  M 301.80 559.08
  Q 308.80 559.04 312.67 559.03
  A 0.96 0.95 89.9 0 1 313.62 559.99
  L 313.62 566.29
  A 0.88 0.87 90.0 0 1 312.75 567.17
  L 304.52 567.17
  A 0.56 0.55 0.5 0 0 303.96 567.71
  L 303.41 586.31
  A 1.41 1.39 68.1 0 1 303.01 587.27
  Q 302.71 587.58 301.83 587.58
  Q 300.97 587.58 300.67 587.27
  A 1.41 1.39 -68.2 0 1 300.27 586.31
  L 299.67 567.72
  A 0.56 0.55 -0.7 0 0 299.10 567.18
  L 290.87 567.20
  A 0.88 0.87 89.8 0 1 290.00 566.32
  L 289.98 560.02
  A 0.96 0.95 89.9 0 1 290.94 559.06
  Q 294.80 559.06 301.80 559.08
  Z"
/>
<path fill="#676767" d="
  M 357.0287 583.9474
  A 3.43 3.43 0.0 0 1 353.6047 587.3833
  L 334.5447 587.4166
  A 3.43 3.43 0.0 0 1 331.1087 583.9926
  L 331.0713 562.5526
  A 3.43 3.43 0.0 0 1 334.4953 559.1167
  L 353.5553 559.0834
  A 3.43 3.43 0.0 0 1 356.9913 562.5074
  L 357.0287 583.9474
  Z
  M 353.0074 568.0779
  A 0.90 0.90 0.0 0 0 352.1058 567.1795
  L 340.0658 567.2005
  A 0.90 0.90 0.0 0 0 339.1674 568.1021
  L 339.1926 582.5821
  A 0.90 0.90 0.0 0 0 340.0942 583.4805
  L 352.1342 583.4595
  A 0.90 0.90 0.0 0 0 353.0326 582.5579
  L 353.0074 568.0779
  Z"
/>
<path fill="#68686a" d="
  M 396.73 560.80
  L 398.67 559.49
  A 1.45 1.42 25.6 0 1 399.43 559.23
  Q 400.93 559.13 406.68 559.11
  C 413.44 559.09 414.25 559.26 414.30 565.83
  Q 414.38 575.22 414.22 586.40
  A 1.18 1.17 -89.5 0 1 413.05 587.56
  L 411.48 587.56
  A 1.19 1.19 0.0 0 1 410.29 586.37
  L 410.29 568.15
  A 0.95 0.95 0.0 0 0 409.34 567.20
  L 401.31 567.20
  A 0.80 0.80 0.0 0 0 400.51 568.00
  L 400.51 586.69
  A 0.76 0.76 0.0 0 1 399.75 587.45
  L 393.36 587.45
  A 0.99 0.98 0.0 0 1 392.37 586.47
  L 392.37 567.97
  A 0.80 0.79 90.0 0 0 391.58 567.17
  L 383.45 567.17
  A 0.78 0.78 0.0 0 0 382.67 567.95
  L 382.67 586.65
  A 0.86 0.85 0.0 0 1 381.81 587.50
  L 375.34 587.50
  A 0.89 0.89 0.0 0 1 374.45 586.61
  L 374.57 562.28
  A 3.00 2.99 -11.6 0 1 376.37 559.55
  Q 377.27 559.16 380.02 559.12
  Q 386.45 559.03 392.75 559.18
  Q 394.68 559.23 395.79 560.65
  A 0.70 0.70 0.0 0 0 396.73 560.80
  Z"
/>
<path fill="#676767" d="
  M 440.69 579.70
  A 0.79 0.78 0.2 0 0 439.89 580.48
  L 439.88 585.73
  A 1.73 1.73 0.0 0 1 438.14 587.46
  L 433.74 587.45
  A 1.77 1.77 0.0 0 1 431.97 585.76
  Q 431.45 574.12 431.86 562.53
  Q 431.97 559.25 435.27 559.18
  Q 446.60 558.94 451.05 559.09
  Q 454.46 559.21 455.75 559.61
  A 2.68 2.67 -82.2 0 1 457.70 562.18
  L 457.75 586.05
  A 1.57 1.56 90.0 0 1 456.18 587.63
  L 455.32 587.63
  A 1.61 1.61 0.0 0 1 453.71 586.01
  L 453.73 580.28
  A 0.55 0.54 0.2 0 0 453.18 579.73
  L 440.69 579.70
  Z
  M 453.7870 568.2843
  A 1.17 1.17 0.0 0 0 452.6028 567.1287
  L 440.9037 567.2716
  A 1.17 1.17 0.0 0 0 439.7481 568.4558
  L 439.7730 570.4957
  A 1.17 1.17 0.0 0 0 440.9572 571.6513
  L 452.6563 571.5084
  A 1.17 1.17 0.0 0 0 453.8119 570.3242
  L 453.7870 568.2843
  Z"
/>
<path fill="#68686a" d="
  M 486.95 587.53
  Q 486.09 587.53 485.79 587.21
  A 1.40 1.38 -68.1 0 1 485.39 586.26
  L 484.84 567.70
  A 0.56 0.55 -0.5 0 0 484.28 567.16
  L 476.07 567.16
  A 0.88 0.87 90.0 0 1 475.20 566.28
  L 475.20 560.00
  A 0.96 0.95 -89.9 0 1 476.15 559.04
  Q 480.00 559.05 486.99 559.09
  Q 493.98 559.06 497.83 559.07
  A 0.96 0.95 -89.9 0 1 498.78 560.02
  L 498.76 566.31
  A 0.88 0.87 -89.9 0 1 497.89 567.19
  L 489.68 567.17
  A 0.56 0.55 0.7 0 0 489.12 567.70
  L 488.53 586.26
  A 1.40 1.38 68.2 0 1 488.13 587.21
  Q 487.82 587.53 486.95 587.53
  Z"
/>
<rect fill="#676767" x="-4.10" y="-14.21" transform="translate(520.22,573.27) rotate(-0.1)" width="8.20" height="28.42" rx="0.80"/>
<path fill="#68686a" d="
  M 567.6514 583.9126
  A 3.55 3.55 0.0 0 1 564.0953 587.4564
  L 545.2353 587.4235
  A 3.55 3.55 0.0 0 1 541.6915 583.8673
  L 541.7286 562.6274
  A 3.55 3.55 0.0 0 1 545.2847 559.0836
  L 564.1447 559.1165
  A 3.55 3.55 0.0 0 1 567.6885 562.6727
  L 567.6514 583.9126
  Z
  M 563.6326 568.0720
  A 0.87 0.87 0.0 0 0 562.7642 567.2005
  L 550.7642 567.1795
  A 0.87 0.87 0.0 0 0 549.8927 568.0480
  L 549.8674 582.5480
  A 0.87 0.87 0.0 0 0 550.7358 583.4195
  L 562.7358 583.4405
  A 0.87 0.87 0.0 0 0 563.6073 582.5720
  L 563.6326 568.0720
  Z"
/>
<path fill="#676767" d="
  M 586.05 587.43
  A 0.94 0.94 0.0 0 1 585.11 586.49
  L 585.21 562.03
  A 2.70 2.69 82.0 0 1 587.16 559.44
  Q 587.80 559.25 589.72 559.16
  Q 596.82 558.82 608.50 559.28
  A 2.24 2.24 0.0 0 1 610.53 560.79
  Q 611.14 562.55 611.17 565.50
  Q 611.25 576.19 610.80 586.42
  A 1.13 1.13 0.0 0 1 609.67 587.50
  L 608.42 587.50
  A 1.16 1.15 -0.0 0 1 607.26 586.35
  L 607.26 568.05
  A 0.85 0.84 -90.0 0 0 606.42 567.20
  L 594.35 567.20
  A 1.05 1.05 0.0 0 0 593.30 568.25
  L 593.30 586.59
  A 0.84 0.84 0.0 0 1 592.46 587.43
  L 586.05 587.43
  Z"
/>
<rect fill="#f7fcff" x="-6.95" y="-2.20" transform="translate(218.26,569.38) rotate(-1.1)" width="13.90" height="4.40" rx="1.12"/>
<rect fill="#f7fcff" x="-7.02" y="-2.19" transform="translate(446.78,569.39) rotate(-0.7)" width="14.04" height="4.38" rx="1.17"/>
<rect fill="#f7fcff" x="-6.92" y="-8.14" transform="translate(346.10,575.33) rotate(-0.1)" width="13.84" height="16.28" rx="0.90"/>
<rect fill="#f7fcff" x="-6.87" y="-8.12" transform="translate(556.75,575.31) rotate(0.1)" width="13.74" height="16.24" rx="0.87"/>
</svg>
